<svg xmlns="http://www.w3.org/2000/svg" width="220" height="220" viewBox="0 0 220 220">
  <defs>
    <linearGradient id="g" x1="0" y1="0" x2="1" y2="1">
      <stop offset="0" stop-color="#64748b"/>
      <stop offset="1" stop-color="#334155"/>
    </linearGradient>
    <filter id="blur"><feGaussianBlur stdDeviation="10"/></filter>
  </defs>
  <rect width="220" height="220" rx="40" fill="url(#g)"/>
  <circle cx="52" cy="58" r="42" fill="rgba(255,255,255,.12)" filter="url(#blur)"/>
  <circle cx="176" cy="66" r="58" fill="rgba(255,255,255,.10)" filter="url(#blur)"/>
  <circle cx="110" cy="86" r="58" fill="rgba(0,0,0,.16)"/>
  <circle cx="110" cy="92" r="42" fill="rgba(255,255,255,.18)"/>
  <path d="M78 138c7-18 24-30 41-30s34 12 41 30v18c-8 10-23 16-41 16s-33-6-41-16z" fill="rgba(255,255,255,.22)"/>
  <rect x="69" y="136" width="82" height="50" rx="22" fill="rgba(0,0,0,.12)"/>
  <circle cx="93" cy="90" r="4" fill="#fff"/>
  <circle cx="127" cy="90" r="4" fill="#fff"/>
  <path d="M96 106c7 7 22 7 29 0" fill="none" stroke="rgba(255,255,255,.86)" stroke-width="4" stroke-linecap="round"/>
  <rect x="72" y="128" width="76" height="58" rx="18" fill="rgba(255,255,255,.06)"/>
  <text x="50%" y="109" text-anchor="middle" fill="#fff" font-family="Arial, sans-serif" font-size="36" font-weight="800">AU</text>
  <text x="50%" y="194" text-anchor="middle" fill="rgba(255,255,255,.92)" font-family="Arial, sans-serif" font-size="12" font-weight="700">Autor</text>
</svg>