<svg xmlns="http://www.w3.org/2000/svg" width="320" height="460" viewBox="0 0 320 460">
  <defs>
    <linearGradient id="g" x1="0" y1="0" x2="1" y2="1">
      <stop offset="0" stop-color="#17351f"/>
      <stop offset="1" stop-color="#16a34a"/>
    </linearGradient>
    <linearGradient id="shine" x1="0" y1="0" x2="1" y2="1">
      <stop offset="0" stop-color="rgba(255,255,255,.20)"/>
      <stop offset="1" stop-color="rgba(255,255,255,0)"/>
    </linearGradient>
    <filter id="blur"><feGaussianBlur stdDeviation="16"/></filter>
  </defs>
  <rect width="320" height="460" rx="24" fill="url(#g)"/>
  <circle cx="58" cy="76" r="58" fill="rgba(255,255,255,.10)" filter="url(#blur)"/>
  <circle cx="262" cy="102" r="78" fill="rgba(255,255,255,.07)" filter="url(#blur)"/>
  <circle cx="244" cy="370" r="84" fill="rgba(0,0,0,.10)" filter="url(#blur)"/>
  <rect x="16" y="16" width="288" height="428" rx="20" fill="rgba(10,12,24,.18)" stroke="rgba(255,255,255,.12)"/>
  <rect x="34" y="34" width="94" height="26" rx="13" fill="rgba(255,255,255,.12)"/>
  <text x="81" y="52" text-anchor="middle" fill="rgba(255,255,255,.92)" font-family="Arial, sans-serif" font-size="11" font-weight="700">ESPIRITUALIDAD</text>
  <rect x="34" y="78" width="60" height="4" rx="2" fill="rgba(255,255,255,.35)"/>
  <rect x="34" y="90" width="108" height="4" rx="2" fill="rgba(255,255,255,.2)"/>
  <rect x="34" y="102" width="82" height="4" rx="2" fill="rgba(255,255,255,.16)"/>
  <text x="34" y="150" fill="#fff" font-family="Arial, sans-serif" font-size="20" font-weight="800"><tspan x="34" dy="26">The Power of</tspan><tspan x="34" dy="24">Your</tspan><tspan x="34" dy="24">Subconscious</tspan><tspan x="34" dy="24">Mind (Edición Clásica)</tspan></text>
  <rect x="34" y="330" width="252" height="74" rx="18" fill="rgba(0,0,0,.20)" stroke="rgba(255,255,255,.10)"/>
  <text x="34" y="363" fill="rgba(255,255,255,.90)" font-family="Arial, sans-serif" font-size="14" font-weight="700">Joseph Murphy</text>
  <text x="34" y="388" fill="rgba(255,255,255,.70)" font-family="Arial, sans-serif" font-size="10" font-weight="600">YS Books · Edición destacada</text>
  <rect x="214" y="338" width="56" height="56" rx="14" fill="rgba(255,255,255,.08)"/>
  <path d="M228 356h26M228 366h18M228 376h22" stroke="rgba(255,255,255,.9)" stroke-width="3" stroke-linecap="round"/>
  <path d="M50 246c22-24 51-42 84-49 26-5 53-2 76 8 21 9 40 24 56 44" fill="none" stroke="rgba(255,255,255,.18)" stroke-width="18" stroke-linecap="round"/>
  <path d="M50 246c22-24 51-42 84-49 26-5 53-2 76 8 21 9 40 24 56 44" fill="none" stroke="rgba(255,255,255,.28)" stroke-width="3" stroke-linecap="round"/>
</svg>