<svg xmlns="http://www.w3.org/2000/svg" width="320" height="460" viewBox="0 0 320 460">
  <defs>
    <linearGradient id="g" x1="0" y1="0" x2="1" y2="1">
      <stop offset="0" stop-color="#1f2937"/>
      <stop offset="1" stop-color="#4f46e5"/>
    </linearGradient>
    <filter id="blur"><feGaussianBlur stdDeviation="14"/></filter>
  </defs>
  <rect width="320" height="460" rx="26" fill="url(#g)"/>
  <circle cx="60" cy="72" r="48" fill="rgba(255,255,255,.12)" filter="url(#blur)"/>
  <circle cx="254" cy="102" r="70" fill="rgba(255,255,255,.08)" filter="url(#blur)"/>
  <rect x="18" y="18" width="284" height="424" rx="20" fill="rgba(7,10,20,.20)" stroke="rgba(255,255,255,.12)"/>
  <rect x="34" y="34" width="96" height="26" rx="13" fill="rgba(0,0,0,.22)"/>
  <text x="82" y="52" text-anchor="middle" fill="rgba(255,255,255,.88)" font-family="Arial, sans-serif" font-size="11" font-weight="700">HISTORIA</text>
  <text x="52" y="142" fill="#fff" font-family="Arial, sans-serif" font-size="34" font-weight="800"><tspan x="52" dy="0">Homo Deus</tspan></text>
  <text x="34" y="282" fill="rgba(255,255,255,.88)" font-family="Arial, sans-serif" font-size="15" font-weight="700">Yuval Noah Harari</text>
  <text x="34" y="305" fill="rgba(255,255,255,.7)" font-family="Arial, sans-serif" font-size="11">YS Books Collection</text>
  <rect x="34" y="334" width="252" height="60" rx="18" fill="rgba(0,0,0,.18)" stroke="rgba(255,255,255,.08)"/>
  <text x="58" y="373" fill="#fff" font-family="Arial, sans-serif" font-size="26" font-weight="700">⌘</text>
  <rect x="40" y="335" width="34" height="34" rx="12" fill="rgba(255,255,255,0.08)" transform="rotate(8 57 352)"/><rect x="98" y="357" width="34" height="34" rx="12" fill="rgba(255,255,255,0.08)" transform="rotate(-8 115 374)"/><rect x="156" y="335" width="34" height="34" rx="12" fill="rgba(255,255,255,0.08)" transform="rotate(8 173 352)"/><rect x="214" y="357" width="34" height="34" rx="12" fill="rgba(255,255,255,0.08)" transform="rotate(-8 231 374)"/>
</svg>